<svg xmlns="http://www.w3.org/2000/svg" viewBox="0 0 500 500"><g id="freepik--background-simple--inject-6"><path d="M443.18,291.27c6.26-18,7.95-38.3,8.29-56,.6-30.81-4.72-62.55-18.31-90.62-16.48-34-52.81-56.68-90.23-64.2-19.07-3.84-39.18-3.9-58,1.11-24.63,6.54-38,24.2-56,40.3-32.8,29.38-85,17.89-124.55,31.84-52,18.34-73.71,74.93-63.64,124.68C46,304.26,61.66,327.5,87.09,338.7c27,11.88,58.82,7.11,86.7,1.32a293.81,293.81,0,0,1,73.44-5.95c23.86,1.12,46.52,7.33,70.07,10.2,38.38,4.68,83.44,5,110.7-26C434.83,310.53,439.7,301.25,443.18,291.27Z" style="fill:#92E3A9"></path><path d="M443.18,291.27c6.26-18,7.95-38.3,8.29-56,.6-30.81-4.72-62.55-18.31-90.62-16.48-34-52.81-56.68-90.23-64.2-19.07-3.84-39.18-3.9-58,1.11-24.63,6.54-38,24.2-56,40.3-32.8,29.38-85,17.89-124.55,31.84-52,18.34-73.71,74.93-63.64,124.68C46,304.26,61.66,327.5,87.09,338.7c27,11.88,58.82,7.11,86.7,1.32a293.81,293.81,0,0,1,73.44-5.95c23.86,1.12,46.52,7.33,70.07,10.2,38.38,4.68,83.44,5,110.7-26C434.83,310.53,439.7,301.25,443.18,291.27Z" style="fill:#fff;opacity:0.7000000000000001"></path></g><g id="freepik--character-5--inject-6"><polygon points="394.65 372.33 385.54 380.02 385.54 381.73 402.34 381.73 401.17 373.48 394.65 372.33" style="fill:#92E3A9;stroke:#263238;stroke-linecap:round;stroke-linejoin:round"></polygon><path d="M373.66,171.59s-1.11-2.21-2-.18-.74,5.54-.19,6.46,2.77,2.22,2.77,1.29S373.66,171.59,373.66,171.59Z" style="fill:#fff;stroke:#263238;stroke-linecap:round;stroke-linejoin:round"></path><path d="M391.54,175.9s1.68-1.82,2,.39-.84,5.52-1.63,6.25-3.27,1.36-3,.47S391.54,175.9,391.54,175.9Z" style="fill:#fff;stroke:#263238;stroke-linecap:round;stroke-linejoin:round"></path><path d="M393,147l-14,13.3s.27,3.77,4.64,6.49,9.23-.16,9.23-.16Z" style="fill:#92E3A9;stroke:#263238;stroke-linecap:round;stroke-linejoin:round"></path><path d="M385.16,194.25c-2.64,0-8.58-.44-8.58-.44l-14.74-6.38-12.76-17.38-6.39-34.77a44.28,44.28,0,0,0,2.72-5.88c.26-1.31-.79-5.26-.79-5.26s-.79-1.84-1.05-.26a17.49,17.49,0,0,0,0,3.94l-.79,1.32s-1.32-6-2.11-7.63-2.63-1.05-2.63,0-.79,3.68-1.05,5.79,2.62,8.86,2.62,8.86l.88,37.19s18.49,29.71,19.59,30.81.88,23.76,1.1,27.28-1.32,10.12-.88,11.44,2.42,4.84,9,6.39,18.7.44,20-1.11,1.32-5.94,1.32-5.94,4-20.24,4-22,5.06-21.78,5.06-21.78S387.8,194.25,385.16,194.25Z" style="fill:#fff;stroke:#263238;stroke-linecap:round;stroke-linejoin:round"></path><path d="M376.58,193.81l-14.74-6.38-12.76-17.38-5.41-29.48-3.95.12.77,32.66s18.49,29.71,19.59,30.81.88,23.76,1.1,27.28-1.32,10.12-.88,11.44,2.42,4.84,9,6.39,18.7.44,20-1.11,1.32-5.94,1.32-5.94,4-20.24,4-22,5.06-21.78,5.06-21.78-11.88-4.19-14.52-4.19S376.58,193.81,376.58,193.81Z" style="fill:#92E3A9;stroke:#263238;stroke-linecap:round;stroke-linejoin:round"></path><path d="M377.46,188.53a45.35,45.35,0,0,0-4.62,2.86c-.66.66-4,11.89-4,11.89l7-4,7.7,6.16s2.86-8.36,2.64-11.45-3.08-5.06-3.08-5.06Z" style="fill:#fff;stroke:#263238;stroke-linecap:round;stroke-linejoin:round"></path><polygon points="376.58 187.65 376.36 205.04 384.28 189.19 376.58 187.65" style="fill:#fff;stroke:#263238;stroke-linecap:round;stroke-linejoin:round"></polygon><path d="M391.41,177.1c-1.2,6.81-6.85,15.5-11.79,14.63s-7.3-10.95-6.1-17.76,6.16-11.63,11.1-10.77S392.6,170.29,391.41,177.1Z" style="fill:#fff;stroke:#263238;stroke-linecap:round;stroke-linejoin:round"></path><path d="M373.18,175.76s2,.61,1.69-.12.53-3,.53-3a3.21,3.21,0,0,0,1.26-1.24c.58-.94-.18-2.53,0-3.75s6.05,2.31,7.06,2.49,6.92-.24,6.92-.24-1.65,3.46-1.11,4,.62,2.4.62,2.4A19.1,19.1,0,0,0,389.1,180c.1.64,1.24,1.26,1.55.68s1.23-5.82,1.23-5.82,1.38.45,1.87-2.38,0-9.38-2.64-11.09-9.08-2.84-12-1.89-5.82,7.11-5.61,9.44A42.38,42.38,0,0,1,373.18,175.76Z" style="fill:#263238;stroke:#263238;stroke-linecap:round;stroke-linejoin:round"></path><path d="M399.68,198.44s10.57,39.16,10.79,40a4.31,4.31,0,0,1-3.3,4.62c-3.08.88-4.4-.44-5.28-2.42s-7.05-21.78-7.05-21.78S398.36,201.74,399.68,198.44Z" style="fill:#92E3A9;stroke:#263238;stroke-linecap:round;stroke-linejoin:round"></path><polygon points="379.52 227.48 388.92 227.48 389.44 214.03 379 214.03 379.52 227.48" style="fill:#fff;stroke:#263238;stroke-linecap:round;stroke-linejoin:round"></polygon><polygon points="380.23 217.9 380.55 226 387.89 226 388.2 217.9 380.23 217.9" style="fill:#92E3A9;stroke:#263238;stroke-linecap:round;stroke-linejoin:round"></polygon><path d="M392.41,230.67a16.8,16.8,0,0,1-3.63.39c-1.28-.12-3.7-1.92-4.13-2s-3.63-1.19-3.63-1.19l-1-1.95-.66-.64c-.66-.63.3-1.69.3-1.69l-.68-.5s-.05-1,1.38-.88,6.72.32,6.72.32l-2.19-1.2a11.87,11.87,0,0,0-3.94-.93c-1.28-.12-2.25-.49-.35-.89s7.31.23,8.23,1.17,3.41,6.77,3.41,6.77,9.25,6.38,14.24,8.35,5.79,4.34,5,6.83-3.16,2.5-5.52,2.24S392.41,230.67,392.41,230.67Z" style="fill:#fff;stroke:#263238;stroke-linecap:round;stroke-linejoin:round"></path><path d="M406.51,235.84c-3.39-1.34-8.73-4.7-11.81-6.72a8.09,8.09,0,0,1-.8,3.37c3.13,3.8,10.26,12.21,12.09,12.42,2.36.26,4.73.26,5.52-2.24S411.51,237.81,406.51,235.84Z" style="fill:#92E3A9;stroke:#263238;stroke-linecap:round;stroke-linejoin:round"></path><polygon points="385.54 380.02 385.54 381.73 402.34 381.73 401.99 379.26 386.43 379.26 385.54 380.02" style="fill:#fff;stroke:#263238;stroke-linecap:round;stroke-linejoin:round"></polygon><polygon points="353.82 371.64 343.19 380.02 343.19 381.73 361.04 381.73 359.87 371.9 353.82 371.64" style="fill:#92E3A9;stroke:#263238;stroke-linecap:round;stroke-linejoin:round"></polygon><polygon points="343.19 380.02 343.19 381.73 361.04 381.73 360.69 379.26 344.09 379.26 343.19 380.02" style="fill:#fff;stroke:#263238;stroke-linecap:round;stroke-linejoin:round"></polygon><path d="M360.3,242.88s-5.69,28.55-7.27,39.86-2.89,42.34-2.89,53.65,3.68,35.25,3.68,35.25l6.05.26s5.26-62.6,6.84-67.33S372,286.16,372,286.16s4.21,33.93,4.73,37.87S394.85,373,394.85,373l6.31.53s-10.25-50-10.52-53.39,2.11-51,.79-59.44-2.1-13.94-2.1-13.94S370.72,249.32,360.3,242.88Z" style="fill:#263238;stroke:#263238;stroke-linecap:round;stroke-linejoin:round"></path><line x1="371.97" y1="286.16" x2="370.13" y2="269.32" style="fill:none;stroke:#fff;stroke-linecap:round;stroke-linejoin:round"></line></g><g id="freepik--character-4--inject-6"><path d="M301.76,180.76s-5.14-2.67-5.14-7.43,11.24-9.14,20.76-7.81,14.1,12.95,13.34,19.62-.19,11.24,6.09,15.62,17.72,17.91,13.15,24.76-10.1,9.15-5.91,14.48,4.95,11.43-.57,15.62-12,5.15-18.29,2.1-12.76-14.1-11.05-22.29-3.81-32.19-5.33-40.77S305.57,181.14,301.76,180.76Z" style="fill:#263238;stroke:#263238;stroke-linecap:round;stroke-linejoin:round"></path><path d="M308.05,245.91s-8.77,7.81-12,10.09a9.55,9.55,0,0,1-6.48,2.1c-1.14,0-4-1.34-5.52.19s-3.81,5.9-3.24,6.29,5.33-3.05,5.9-3.05,2.1-.19,2.1-.19-4.19,3-3.24,3.62,3.43-1.15,4.38-1.72a48.2,48.2,0,0,0,4.19-3.81s10.67-5.71,13.15-6.28,4.76-4.77,4.57-6.1S309.19,244.76,308.05,245.91Z" style="fill:#fff;stroke:#263238;stroke-linecap:round;stroke-linejoin:round"></path><path d="M305.57,198.67a11.92,11.92,0,0,1,2.48,6.66c0,3.62-5.53,10.29-7.43,16s-.38,9.53,1.14,11.62,4.19,5.53,4.38,7.43.95,5.34.95,5.34,6.48,1.9,19.24-3.24c0,0,1.34-29.34,1-33.15s-5.53-6.28-8-6.66-5.34-1.91-6.29-3.81a17.72,17.72,0,0,1-1.33-3.62Z" style="fill:#92E3A9;stroke:#263238;stroke-linecap:round;stroke-linejoin:round"></path><path d="M317.82,202.31c-2-.64-4.05-1.92-4.82-3.45a17.72,17.72,0,0,1-1.33-3.62l-6.1,3.43a11.92,11.92,0,0,1,2.48,6.66c0,1.65-1.15,3.94-2.58,6.47,1.11,2.4,3.18,5,6.52,2.55S317,206.31,317.82,202.31Z" style="fill:#fff;stroke:#263238;stroke-linecap:round;stroke-linejoin:round"></path><path d="M305.27,173.06s-4,3.22-4.69,6-3.17,9.27-2.71,11.59.92,9.48,3.7,10.17,11.56-4.85,12.95-7.4,2.54-9-.46-15.26S306.43,170.75,305.27,173.06Z" style="fill:#fff;stroke:#263238;stroke-linecap:round;stroke-linejoin:round"></path><path d="M304.34,170.75s5.55,5.32,6.25,12.26-2.08,14.57,3.93,19.65,16-.69,16-.69-6.48-4.63-7.63-12.49-3-15-6.71-17.35S305.73,169.82,304.34,170.75Z" style="fill:#263238;stroke:#263238;stroke-linecap:round;stroke-linejoin:round"></path><path d="M300.62,192s-8.38,4.19-13.72,5.33-9.14,2.1-9.14,2.1a21.18,21.18,0,0,0,3.05.76c1.33.19,10.28-3.24,13.71-4.19a55.34,55.34,0,0,0,8-3.24A4.75,4.75,0,0,0,300.62,192Z" style="fill:#92E3A9;stroke:#263238;stroke-linecap:round;stroke-linejoin:round"></path><path d="M320.43,209s.19,19.24.76,22.1,6.1,10.29,6.86,8.76.95-25.52.19-30.29-8.66-6-9.79-3.54" style="fill:#92E3A9;stroke:#263238;stroke-linecap:round;stroke-linejoin:round"></path><path d="M304.81,203.81s.57-8-.38-9.15-2.86-2.66-3.81-2.66-4.19.57-3.62,1.71,1.9,3.81,2.48,5.15.38,5.71,1.33,6.85a26.48,26.48,0,0,0,3.62,3s9.52,20.38,12.19,24.77,10.1,8,11.05,7.23-.57-6.85-2.48-10.85S315.86,219.24,313,216s-5.71-7.43-6.67-8.76a16.31,16.31,0,0,1-1.52-2.67Z" style="fill:#fff;stroke:#263238;stroke-linecap:round;stroke-linejoin:round"></path><path d="M327.94,151.05,312.7,165.82s.35,4.14,5.19,7.07S328,172.6,328,172.6Z" style="fill:#92E3A9;stroke:#263238;stroke-linecap:round;stroke-linejoin:round"></path><path d="M380.62,299.63s6.29-3.62,7.05-3.24,8,9.9,8.19,10.86-1.14,1.52-1.9,1.14-6.86-4.76-8.38-4.95-4-.77-4-.77Z" style="fill:#92E3A9;stroke:#263238;stroke-linecap:round;stroke-linejoin:round"></path><path d="M317.38,368.2s-.38,4.76-1.33,6.67-4.38,5.14-4.38,5.9.57,1,1.52,1a12.26,12.26,0,0,0,6.48-3.05c1.71-1.91,2.09-3.81,2.66-4.57s2.86-1.72,3.05-3.43-2.28-4.57-2.28-4.57Z" style="fill:#92E3A9;stroke:#263238;stroke-linecap:round;stroke-linejoin:round"></path><path d="M307.09,245.72s-4.57,28.57-4,44,8.77,53.34,10.67,61.34,3.62,17.14,3.62,17.14l5.72-2.09s1.71-18.86.19-30.67-3.62-29.53-3.05-35.24.57-14.48.57-14.48,7.81,26.48,11.05,32,4.95,6.1,7.43,5.91,25.14-11.05,28.38-13,13.91-8,13.91-8l-1-3s-15.81,4.38-22.09,6.47-15.24,4.76-15.24,4.76-1.72-21.52-3.81-33.71-10.29-32-13.15-34.67C326.33,242.48,320.05,246.1,307.09,245.72Z" style="fill:#263238;stroke:#263238;stroke-linecap:round;stroke-linejoin:round"></path><line x1="321.09" y1="286.67" x2="316.47" y2="269.43" style="fill:none;stroke:#fff;stroke-linecap:round;stroke-linejoin:round"></line></g><g id="freepik--character-2--inject-6"><path d="M213.22,274.65s3.52,25.3,3.09,36.36-8.5,23.42-12.21,32.2c-2.81,6.68-9.07,24-9.35,27.28s-.54,5.3.75,7.32,3.49,2.72,2.15,3.35a4.39,4.39,0,0,1-5.08-.53c-1.74-1.58-3-5.37-4.3-6.94s-3.9-4.28-3.64-6.49,4.25-2.35,5.37-3.44,2.1-5.72,3.53-11.22,4.18-23,5.63-29.34,6.31-12.39,6.31-12.39l-9.75-35.37S201.57,270.23,213.22,274.65Z" style="fill:#fff;stroke:#263238;stroke-linecap:round;stroke-linejoin:round"></path><path d="M195.5,377.81a6,6,0,0,1-.76-1.8c-2.32-.21-2.92-2.24-4-5-.84-2.23-2-4.91-2.61-6.38-1.54.53-3.37,1.09-3.54,2.56-.26,2.21,2.34,4.92,3.64,6.49s2.56,5.36,4.3,6.94a4.39,4.39,0,0,0,5.08.53C199,380.53,196.79,379.82,195.5,377.81Z" style="fill:#263238;stroke:#263238;stroke-linecap:round;stroke-linejoin:round"></path><path d="M185.67,277.25l17.48,27.88S195.24,323.58,192.8,330,182,352.35,180.19,354.78c-1.24,1.7-5.76.89-6.64,3.1s.44,7.3.44,9.52-.22,6,1.11,7.08a4.53,4.53,0,0,0,2.65,1.11s-.66-5.76.67-7.31,5.09-10,6.19-11.06,24.74-37,27.62-40.58a13.13,13.13,0,0,0,2.65-12.17c-1.22-5-9.29-31.65-9.29-31.65S191.87,270.61,185.67,277.25Z" style="fill:#fff;stroke:#263238;stroke-linecap:round;stroke-linejoin:round"></path><path d="M179.09,367.28c-1.15-.25-2.33-.73-2.63-1.65-.46-1.35-.11-6.5.13-9.46-1.34.28-2.61.65-3,1.71-.89,2.21.44,7.3.44,9.52s-.22,6,1.11,7.08a4.53,4.53,0,0,0,2.65,1.11s-.66-5.76.67-7.31A7.69,7.69,0,0,0,179.09,367.28Z" style="fill:#263238;stroke:#263238;stroke-linecap:round;stroke-linejoin:round"></path><path d="M170.71,148.73l2.85,21s3.54,2.18,8.77,0,5.77-8.32,5.77-8.32Z" style="fill:#92E3A9;stroke:#263238;stroke-linecap:round;stroke-linejoin:round"></path><path d="M199.09,173s1.43-3.4,2.5-6.43-4.11-5-9.83-6.26-14.48,2.14-17.69,8.76-4.12,32.35-5,37.89-3.22,20.92,2.32,22.53,11.44,2.68,17.52-6.44,3.58-35.21,3.58-40.4,6.25-8.93,6.25-8.93Z" style="fill:#263238;stroke:#263238;stroke-linecap:round;stroke-linejoin:round"></path><path d="M198.91,197.87s1.61-.72,4.65,1.79,13.59,18.23,15.55,20a13,13,0,0,1,3.58,7c.18,1.78.71,5.72-2.51,5.9s-12.33-14-15.19-16.63S197.3,202.87,198.91,197.87Z" style="fill:#fff;stroke:#263238;stroke-linecap:round;stroke-linejoin:round"></path><path d="M184.79,181.06s.36,8.94.36,12.34-.18,4.11-3,4.11-7.69.89-10,5,6.79,18.41,9.65,21.62,3.76,7.15,2.68,10-9.29,13.77-8.93,23.6,10.88,21.62,10.88,21.62,16.07-4.74,27.51-2.6c0,0-4.25-22.77-7.47-32.78s-5.54-14.66-5-16.81,5.19-7.86,4.83-13.22-3.22-10.37-4.47-13.41-4.65-3.4-5.9-3.4-3,.18-3.75-1.25-.72-8.4-.72-8.4Z" style="fill:#92E3A9;stroke:#263238;stroke-linecap:round;stroke-linejoin:round"></path><path d="M192.66,205.2c4.89-.63,4.14-5.31,3.27-8h-.06c-1.25,0-3,.18-3.75-1.25s-.72-8.4-.72-8.4l-6.61-6.44s.36,8.94.36,12.34-.18,4.11-3,4.11C182.11,197.51,185.68,206.09,192.66,205.2Z" style="fill:#fff;stroke:#263238;stroke-linecap:round;stroke-linejoin:round"></path><path d="M180.86,201.09s-1.43-3.22-3.76-3.22-5,2.32-6.43,4.47-2,3.57-5,8.4-4.46,10.54-3.21,10.9,8.58-7.15,12.87-10.19S181,203.41,180.86,201.09Z" style="fill:#fff;stroke:#263238;stroke-linecap:round;stroke-linejoin:round"></path><path d="M193.19,164.62a13.58,13.58,0,0,1-1.61,7.33c-2,3.22-9.11,6.43-9.11,6.43s-2.33-3-3-.18.18,5.9,2.14,6.08,2.51-2,2.51-2a13.35,13.35,0,0,0,6.61,6.07c5,2.33,7.69,2.33,8.76-1.61s.89-8.58-.36-13.76S193.91,164.8,193.19,164.62Z" style="fill:#fff;stroke:#263238;stroke-linecap:round;stroke-linejoin:round"></path><path d="M199.23,181s8.38,4.19,13.71,5.33,9.15,2.1,9.15,2.1a21.59,21.59,0,0,1-3.05.76c-1.34.19-10.29-3.24-13.72-4.19a55.34,55.34,0,0,1-8-3.24A4.75,4.75,0,0,1,199.23,181Z" style="fill:#92E3A9;stroke:#263238;stroke-linecap:round;stroke-linejoin:round"></path><path d="M192.74,191.43s1.26-7.93,2.45-8.82,3.39-2,4.32-1.73,4,1.51,3.13,2.49-2.72,3.28-3.58,4.45-1.67,5.47-2.86,6.37a27.08,27.08,0,0,1-4.22,2.15s-13.91,17.68-17.5,21.34-11.65,5.49-12.4,4.53,2.11-6.54,4.88-10,11.51-8.26,15-10.76a108.93,108.93,0,0,0,8.48-7,15.7,15.7,0,0,0,2.1-2.25Z" style="fill:#fff;stroke:#263238;stroke-linecap:round;stroke-linejoin:round"></path><polygon points="208.61 205.64 217.54 205.64 218.04 192.86 208.12 192.86 208.61 205.64" style="fill:#fff;stroke:#263238;stroke-linecap:round;stroke-linejoin:round"></polygon><polygon points="209.29 196.53 209.59 204.24 216.57 204.24 216.87 196.53 209.29 196.53" style="fill:#92E3A9;stroke:#263238;stroke-linecap:round;stroke-linejoin:round"></polygon><path d="M219.11,209.13A57.24,57.24,0,0,1,218,219.68c-1.07,4.82-2,12.51,2.68,12.87s2.5-10.37,2.5-15.91a29.71,29.71,0,0,0-2.5-12.16c-.89-1.61-1.43,0-1.43,1.61A27.42,27.42,0,0,1,219.11,209.13Z" style="fill:#fff;stroke:#263238;stroke-linecap:round;stroke-linejoin:round"></path><path d="M220.73,205.66s-2.37-5.54-3.24-6.44-6-1.5-7.82-1.12-.89.74.33.85a11.34,11.34,0,0,1,3.75.89l2.08,1.14s-5-.18-6.39-.3-1.31.83-1.31.83l.64.47s-.91,1-.28,1.62l.63.6.92,1.86s3,1.09,3.45,1.13,2.71,1.74,3.93,1.85a15.68,15.68,0,0,0,3.45-.37" style="fill:#fff;stroke:#263238;stroke-linecap:round;stroke-linejoin:round"></path></g><g id="freepik--character-3--inject-6"><polygon points="228.16 199.18 211.72 235.52 216.91 237.94 231.8 217.69 228.16 199.18" style="fill:#fff;stroke:#263238;stroke-linecap:round;stroke-linejoin:round"></polygon><path d="M210.86,237.59s-1-3.28-.17-5.53,2.07-4,6.05-4.5,6.58,1,7.27,4-2.94,5.36-6.06,6.05S213.11,239.67,210.86,237.59Z" style="fill:#fff;stroke:#263238;stroke-linecap:round;stroke-linejoin:round"></path><polygon points="272.98 196.75 289.94 235.52 284.75 237.94 269.87 217.69 272.98 196.75" style="fill:#fff;stroke:#263238;stroke-linecap:round;stroke-linejoin:round"></polygon><path d="M243.56,193.12l-15.4,6.06s4.33,26.65,4.5,31.49-1,17.82,0,19.21,3.64,1.56,3.64,1.56l31.61-.17s2.71-1.35,1.63-6.23c-.6-2.7.67-24.06,1-28.56S273,196.75,273,196.75s-12.8-3.63-16.26-4.15S246.16,191.39,243.56,193.12Z" style="fill:#fff;stroke:#263238;stroke-linecap:round;stroke-linejoin:round"></path><path d="M246.66,188.75s-3.19,1-3.83,1.6-1.12,4-1.76,5.75-2.72,4.8-2.08,5,6.07-2.56,6.07-2.56l6.24,7.06,5.92-7.38s4.63,3.52,4.95,3-2.08-6.24-2.24-8.64-3.67-3.19-5.75-3.35S246.66,188.75,246.66,188.75Z" style="fill:#fff;stroke:#263238;stroke-linecap:round;stroke-linejoin:round"></path><polygon points="245.29 184.88 245.29 194.23 251.12 204.96 256.68 194.09 256.68 184.33 245.29 184.88" style="fill:#fff;stroke:#263238;stroke-linecap:round;stroke-linejoin:round"></polygon><path d="M242.83,174.32s-2.35-4.19-3.66-1.83.52,7.33,1.31,8.64,2.09-.79,2.09-.79" style="fill:#fff;stroke:#263238;stroke-linecap:round;stroke-linejoin:round"></path><path d="M259.72,174.32s2.36-4.19,3.67-1.83-.53,7.33-1.31,8.64-2.1-.79-2.1-.79" style="fill:#fff;stroke:#263238;stroke-linecap:round;stroke-linejoin:round"></path><path d="M243.16,140.91,241.1,162s3,2.93,8.53,2,7.53-6.78,7.53-6.78Z" style="fill:#92E3A9;stroke:#263238;stroke-linecap:round;stroke-linejoin:round"></path><path d="M260.91,173.53c0,7.38-4.34,17.55-9.69,17.55s-9.7-10.17-9.7-17.55,4.34-13.35,9.7-13.35S260.91,166.16,260.91,173.53Z" style="fill:#fff;stroke:#263238;stroke-linecap:round;stroke-linejoin:round"></path><path d="M258.85,169.83s-.68,1.9.13,2.71.68,2,.55,3.66.27,2.58.81,2,1.08-8.13,1.08-8.67S258.85,169.83,258.85,169.83Z" style="fill:#263238;stroke:#263238;stroke-linecap:round;stroke-linejoin:round"></path><path d="M241.63,172.4l.28,4.21a.84.84,0,0,0,1.08-.55c.27-.81-.41-3.38.27-4.74s3.25-2,3.39-3-1.36-2.71-1.36-3.39.41-1.36,3.8,1.9,9.62,3.93,12.88,3.12-.68-5.7-1.5-6.78,2.17-.27.55-3-7.32-4.48-13-2.44-8.94,4.88-8.13,7.72S241.63,172.4,241.63,172.4Z" style="fill:#263238;stroke:#263238;stroke-linecap:round;stroke-linejoin:round"></path><path d="M229.72,224.1s-3.63,1.73-7.61,3.28-9.69,3.81-10.56,6.58-1,5.88,2.25,6.57,20.42-12.28,20.42-12.28Z" style="fill:#fff;stroke:#263238;stroke-linecap:round;stroke-linejoin:round"></path><path d="M228.34,227.38a8.12,8.12,0,0,1,.34-3.8c.69-1.91,3.29-5.37,4-5.54s3.64,2.77,3.29,3.63-3.29-.69-3.29-.69,3.81,5.19,4.85,5.54-7.1,1.9-7.79,2.07S228.34,227.38,228.34,227.38Z" style="fill:#fff;stroke:#263238;stroke-linecap:round;stroke-linejoin:round"></path><path d="M235.6,230.33s2.77-.35,3.81-2.08,1.21-3.29-.17-2.6a6.84,6.84,0,0,0-2.94,3.29Z" style="fill:#fff;stroke:#263238;stroke-linecap:round;stroke-linejoin:round"></path><path d="M232,230.67s2.42.69,3.63-.34,2.77-3.47,2.6-4.5-.69-.18-2.42.69S232,230.67,232,230.67Z" style="fill:#fff;stroke:#263238;stroke-linecap:round;stroke-linejoin:round"></path><path d="M229.72,228.59s1.21,2.77,2.25,2.08,4.5-4,4.85-4.84-1.22,0-2.43.69S229.72,228.59,229.72,228.59Z" style="fill:#fff;stroke:#263238;stroke-linecap:round;stroke-linejoin:round"></path><path d="M228.86,226s5.41-1.21,6.16-1-1.32,2.25-3.57,3.12S227.13,228.25,228.86,226Z" style="fill:#fff;stroke:#263238;stroke-linecap:round;stroke-linejoin:round"></path><path d="M290.81,237.59s1-3.28.17-5.53-2.08-4-6.06-4.5-6.57,1-7.26,4,2.94,5.36,6,6.05S288.56,239.67,290.81,237.59Z" style="fill:#fff;stroke:#263238;stroke-linecap:round;stroke-linejoin:round"></path><path d="M272,224.1s3.63,1.73,7.61,3.28,9.69,3.81,10.56,6.58,1,5.88-2.25,6.57-20.42-12.28-20.42-12.28Z" style="fill:#fff;stroke:#263238;stroke-linecap:round;stroke-linejoin:round"></path><path d="M271.77,227.38a8,8,0,0,0-.35-3.8c-.69-1.91-3.28-5.37-4-5.54s-3.63,2.77-3.28,3.63,3.28-.69,3.28-.69-3.8,5.19-4.84,5.54,7.09,1.9,7.79,2.07S271.77,227.38,271.77,227.38Z" style="fill:#fff;stroke:#263238;stroke-linecap:round;stroke-linejoin:round"></path><path d="M264.5,230.33s-2.77-.35-3.8-2.08-1.22-3.29.17-2.6a6.89,6.89,0,0,1,2.94,3.29Z" style="fill:#fff;stroke:#263238;stroke-linecap:round;stroke-linejoin:round"></path><path d="M268.14,230.67s-2.43.69-3.64-.34-2.77-3.47-2.59-4.5.69-.18,2.42.69S268.14,230.67,268.14,230.67Z" style="fill:#fff;stroke:#263238;stroke-linecap:round;stroke-linejoin:round"></path><path d="M270.39,228.59s-1.21,2.77-2.25,2.08-4.5-4-4.85-4.84,1.21,0,2.42.69S270.39,228.59,270.39,228.59Z" style="fill:#fff;stroke:#263238;stroke-linecap:round;stroke-linejoin:round"></path><path d="M271.25,226s-5.41-1.21-6.17-1,1.33,2.25,3.58,3.12S273,228.25,271.25,226Z" style="fill:#fff;stroke:#263238;stroke-linecap:round;stroke-linejoin:round"></path><path d="M239.57,208.63h20.5a2.75,2.75,0,0,1,2.75,2.75v10.75a0,0,0,0,1,0,0h-26a0,0,0,0,1,0,0V211.38A2.75,2.75,0,0,1,239.57,208.63Z" style="fill:#92E3A9;stroke:#263238;stroke-linecap:round;stroke-linejoin:round"></path><path d="M250.46,203.08a5,5,0,0,1-1.17-2.54c0-1.17,1.38-3.5,1.38-3.5s1.38,2.44,1.38,3.6S250.46,203.08,250.46,203.08Z" style="fill:#92E3A9"></path><rect x="249.4" y="203.29" width="1.7" height="5.3" style="fill:#fff;stroke:#263238;stroke-linecap:round;stroke-linejoin:round"></rect><path d="M260.07,208.63h-20.5a2.75,2.75,0,0,0-2.75,2.75v4.87c1,.35,2.34.61,2.76-.46.7-1.73,1.56-4.67,2.6-3.12s2.08,1.56,3.12-.34,2.42-2.77,3.8.17,3.12,2.6,3.64.69,1.9-2.07,3.46.52,1.9.52,2.42-1,2.77-3.28,2.42-.34c-.26,2.21.75,4.32,1.78,4.5v-5.45A2.75,2.75,0,0,0,260.07,208.63Z" style="fill:#fff;stroke:#263238;stroke-linecap:round;stroke-linejoin:round"></path><polygon points="265.08 224.96 235.03 224.96 233.35 221.85 266.75 221.85 265.08 224.96" style="fill:#fff;stroke:#263238;stroke-linecap:round;stroke-linejoin:round"></polygon><path d="M277.38,367.65s-3.51-48.45-4.33-67.93-4.87-49.53-4.87-49.53L256,248.71H246l-12.15,1.48s-4.06,30-4.87,49.53-4.33,67.93-4.33,67.93l-3,3v2.17l8.12,3.24L250.86,277l.14-.22.13.22L272.24,376l8.12-3.24v-2.17Z" style="fill:#263238;stroke:#263238;stroke-linecap:round;stroke-linejoin:round"></path><polygon points="221.63 372.8 212.97 380.1 212.97 381.73 228.94 381.73 229.75 376.04 221.63 372.8" style="fill:#92E3A9;stroke:#263238;stroke-linecap:round;stroke-linejoin:round"></polygon><polygon points="228.94 381.73 229.17 380.1 212.97 380.1 212.97 381.73 228.94 381.73" style="fill:#fff;stroke:#263238;stroke-linecap:round;stroke-linejoin:round"></polygon><polygon points="280.09 372.8 288.75 380.1 288.75 381.73 272.78 381.73 271.97 376.04 280.09 372.8" style="fill:#92E3A9;stroke:#263238;stroke-linecap:round;stroke-linejoin:round"></polygon><polygon points="272.78 381.73 272.55 380.1 288.75 380.1 288.75 381.73 272.78 381.73" style="fill:#fff;stroke:#263238;stroke-linecap:round;stroke-linejoin:round"></polygon></g><g id="freepik--character-1--inject-6"><polygon points="113.15 372.8 104.49 380.1 104.49 381.73 120.46 381.73 121.27 376.04 113.15 372.8" style="fill:#92E3A9;stroke:#263238;stroke-linecap:round;stroke-linejoin:round"></polygon><polygon points="120.46 381.73 120.69 380.1 104.49 380.1 104.49 381.73 120.46 381.73" style="fill:#fff;stroke:#263238;stroke-linecap:round;stroke-linejoin:round"></polygon><polygon points="150.62 372.8 159.28 380.1 159.28 381.73 142.63 381.73 142.5 376.04 150.62 372.8" style="fill:#92E3A9;stroke:#263238;stroke-linecap:round;stroke-linejoin:round"></polygon><polygon points="142.63 381.73 159.28 381.73 159.28 380.1 158.95 379.83 142.59 379.83 142.63 381.73" style="fill:#fff;stroke:#263238;stroke-linecap:round;stroke-linejoin:round"></polygon><path d="M152.35,199.2s8.68,35,8.28,37.79-1.87,4.94-4.41,4.94-4.27-8.68-4.27-8.68Z" style="fill:#92E3A9;stroke:#263238;stroke-linecap:round;stroke-linejoin:round"></path><path d="M162.77,236.59s-2.41,4.54-4.81,5.74-4-1.33-4.27-3.6,3.2-3.74,4.67-4.68S163.44,233.92,162.77,236.59Z" style="fill:#fff;stroke:#263238;stroke-linecap:round;stroke-linejoin:round"></path><path d="M163.44,229.65a2.66,2.66,0,0,1,1.6,2.67,6.35,6.35,0,0,1-3.34,5.21c-1.87,1.06-6.54,0-6.94-.14s7.07-4.27,7.34-4.67S163.44,229.65,163.44,229.65Z" style="fill:#fff;stroke:#263238;stroke-linecap:round;stroke-linejoin:round"></path><path d="M118.3,247.67s-1.45,33.71-1.45,36.21-1.5,38.25-1.5,41.5-3,47.75-3,47.75l9,3.5s9.5-58,9.5-61.75,7.25-32.5,7.25-32.5,2,42.75,3,51.25,1.5,42.5,1.5,42.5l8-3.33s4.24-37.42,4.24-51.92.25-41.25.25-47-2.5-24.5-2.5-24.5S123.51,251.46,118.3,247.67Z" style="fill:#263238;stroke:#263238;stroke-linecap:round;stroke-linejoin:round"></path><path d="M128.58,179.44s-.53,7.34-.8,10.82-1.73,4.27-4.27,4.8-11.48,2-12.68,3.48,5.34,33.11,6.14,37.65.12,8.89.39,10.89c.24,1.85-.39,5,1.68,6,1.79.83,5.31.31,7.25.34,5.65.11,11.33.13,17,0,2.8-.08,5.9-.13,8.57-1.06,3.58-1.26,2.29-5.33,2.22-8.22-.06-2.6-.09-5.21-.12-7.82-.08-7.1-.15-14.2-.28-21.3-.07-3.39-.14-6.77-.3-10.15-.07-1.56.12-3.65-.47-5.13-1.07-2.67-8.15-4.41-11.09-5.61l-4.27-1.74s.13-4.4.27-5.07,2.27-1.87,2.27-1.87a20.74,20.74,0,0,1-4.27-4.81c-1.47-2.53-3.48-4.94-5.21-4.14A4,4,0,0,0,128.58,179.44Z" style="fill:#92E3A9;stroke:#263238;stroke-linecap:round;stroke-linejoin:round"></path><path d="M135,210.82l9.83-15.62c-1.17-.4-2.24-.75-3-1.07l-4.27-1.74s.13-4.4.27-5.07,2.27-1.87,2.27-1.87a20.74,20.74,0,0,1-4.27-4.81c-1.47-2.53-3.48-4.94-5.21-4.14a4,4,0,0,0-2,2.94s-.53,7.34-.8,10.82-1.73,4.27-4.27,4.8c-.59.13-1.54.3-2.64.52Z" style="fill:#fff;stroke:#263238;stroke-linecap:round;stroke-linejoin:round"></path><path d="M141.8,194.13l-4.27-1.74s.13-4.4.27-5.07,2.27-1.87,2.27-1.87a20.74,20.74,0,0,1-4.27-4.81c-1.47-2.53-3.48-4.94-5.21-4.14a4,4,0,0,0-2,2.94s-.53,7.34-.8,10.82c-.23,3-1.37,4-3.33,4.58l10.14,11.57,7.67-12.1Z" style="fill:#fff;stroke:#263238;stroke-linecap:round;stroke-linejoin:round"></path><path d="M131,179.52s1.81,6.47,3.36,8.15,10.61,4.65,12,4,1.56-9.32,1.56-10.61,2.19-3.1,2.45-3.75-3.75-2.59-3.75-3-.26-3.88-.77-4.78a8.6,8.6,0,0,1-.65-1.3,12.8,12.8,0,0,0-5.05-2.84c-3.1-.91-9.18.65-10.73,2.84S131,179.52,131,179.52Z" style="fill:#fff;stroke:#263238;stroke-linecap:round;stroke-linejoin:round"></path><path d="M129.79,178.1s1.81,1.29,2.84.64-.26-3.1-.26-3.75,4.53-.78,4.4-2.59-.52-3.23,2.07-3.62,5.56,1.42,8-.26,4-4.39,2.2-6.72-4.66-2.33-6.21-2.33-.65-1.81-4.4-1.81-12,2.46-14.23,5.43-4.13,7.11-2.19,10.61,3.75,5,4.78,7.5,3,4.27,4.53,2.85S129.79,178.1,129.79,178.1Z" style="fill:#263238;stroke:#263238;stroke-linecap:round;stroke-linejoin:round"></path><path d="M132.89,179.78s-1.16-3-3-2.72-.91,3.1.38,4.53a2.81,2.81,0,0,0,3,.77" style="fill:#fff;stroke:#263238;stroke-linecap:round;stroke-linejoin:round"></path><path d="M125.7,143.87l-2,20.46s2.85,2.84,8.26,2,7.29-6.57,7.29-6.57Z" style="fill:#92E3A9;stroke:#263238;stroke-linecap:round;stroke-linejoin:round"></path><path d="M147.23,183.94a10.77,10.77,0,0,1,3.75,3.24c1.55,2.2,4.91,3.88,6.47,1.81s-.65-5.05-2.46-5.18-2.2,1-1.68,1.82,1.42,0,1.42,0,1.42.13,1.42,1-1.42,1.55-2.71.52S149.3,183.17,147.23,183.94Z" style="fill:#92E3A9;stroke:#263238;stroke-linecap:round;stroke-linejoin:round"></path><path d="M113.36,199.2s-1.73-1.33-3.07,0-11.08,45.14-11.08,47.41,2.13.93,4.27.93S118,213.76,118,213.76" style="fill:#92E3A9;stroke:#263238;stroke-linecap:round;stroke-linejoin:round"></path><path d="M102.64,229.69c-1.91,8.66-3.43,16-3.43,16.92,0,2.27,2.13.93,4.27.93,1,0,4.5-8,7.78-16.14Z" style="fill:#fff;stroke:#263238;stroke-linecap:round;stroke-linejoin:round"></path><polygon points="133.79 219.37 134.33 237.26 145.28 241.66 144.74 222.84 133.79 219.37" style="fill:#fff;stroke:#263238;stroke-linecap:round;stroke-linejoin:round"></polygon><polygon points="145.28 241.66 163.7 233.65 163.44 214.56 144.74 222.84 145.28 241.66" style="fill:#fff;stroke:#263238;stroke-linecap:round;stroke-linejoin:round"></polygon><polygon points="133.79 219.37 151.42 211.89 163.44 214.56 144.74 222.84 133.79 219.37" style="fill:#fff;stroke:#263238;stroke-linecap:round;stroke-linejoin:round"></polygon><polygon points="140.79 216.62 151.34 219.75 151.48 238.98 157.46 236.56 157.32 217.47 146.63 214.34 140.79 216.62" style="fill:#92E3A9;stroke:#263238;stroke-linecap:round;stroke-linejoin:round;stroke-width:0.5px"></polygon><line x1="151.34" y1="219.75" x2="157.32" y2="217.47" style="fill:none;stroke:#263238;stroke-linecap:round;stroke-linejoin:round;stroke-width:0.5px"></line><polygon points="155.18 212.77 136.81 220.61 141.65 222.03 159.46 213.91 155.18 212.77" style="fill:#92E3A9;stroke:#263238;stroke-linecap:round;stroke-linejoin:round;stroke-width:0.5px"></polygon><polygon points="136.81 220.61 137.23 238.13 141.93 239.84 141.65 222.03 136.81 220.61" style="fill:#92E3A9;stroke:#263238;stroke-linecap:round;stroke-linejoin:round;stroke-width:0.5px"></polygon><path d="M103.08,240.33s29-4.14,30.45-4.67,5.74-2.94,6.67-3.08a21.52,21.52,0,0,1,4.54.41c1.87.26,2.67,0,2.27.93s-.93.93-2.14.93a27,27,0,0,0-3.47.41l-.8.66s3.74,2.67,4.81,3.47,2.8.94,2.94,1.47-1.61,1.21-2.54,1.34-4.67.67-6.14.67-6-2.94-6-2.94-13.89,5.07-19.76,6.81-13.62,3.87-14.83,2.54.27-6.55,1.07-7.21" style="fill:#fff;stroke:#263238;stroke-linecap:round;stroke-linejoin:round"></path></g><g id="freepik--Confetti--inject-6"><polygon points="215.72 126.29 220.07 130.59 222.47 126.77 215.72 126.29" style="fill:#fff;stroke:#263238;stroke-linecap:round;stroke-linejoin:round;stroke-width:0.5px"></polygon><polygon points="161.25 133.52 165.6 137.82 168 134 161.25 133.52" style="fill:#fff;stroke:#263238;stroke-linecap:round;stroke-linejoin:round;stroke-width:0.5px"></polygon><polygon points="127 116 131.35 120.31 133.75 116.48 127 116" style="fill:#fff;stroke:#263238;stroke-linecap:round;stroke-linejoin:round;stroke-width:0.5px"></polygon><polygon points="264.82 149.46 262.09 154.94 266.47 156.03 264.82 149.46" style="fill:#fff;stroke:#263238;stroke-linecap:round;stroke-linejoin:round;stroke-width:0.5px"></polygon><polygon points="306.55 110.69 303.81 116.17 308.19 117.26 306.55 110.69" style="fill:#fff;stroke:#263238;stroke-linecap:round;stroke-linejoin:round;stroke-width:0.5px"></polygon><polygon points="216.04 158.51 211.78 154.11 209.3 157.88 216.04 158.51" style="fill:#92E3A9;stroke:#263238;stroke-linecap:round;stroke-linejoin:round;stroke-width:0.5px"></polygon><polygon points="191.09 160.15 186.83 155.75 184.35 159.52 191.09 160.15" style="fill:#92E3A9;stroke:#263238;stroke-linecap:round;stroke-linejoin:round;stroke-width:0.5px"></polygon><polygon points="244.84 140.53 249.82 136.97 246.46 133.96 244.84 140.53" style="fill:#92E3A9;stroke:#263238;stroke-linecap:round;stroke-linejoin:round;stroke-width:0.5px"></polygon><polygon points="188.8 122.81 193.78 119.25 190.42 116.23 188.8 122.81" style="fill:#92E3A9;stroke:#263238;stroke-linecap:round;stroke-linejoin:round;stroke-width:0.5px"></polygon><polygon points="284.07 154.53 289.05 150.97 285.69 147.96 284.07 154.53" style="fill:#92E3A9;stroke:#263238;stroke-linecap:round;stroke-linejoin:round;stroke-width:0.5px"></polygon><polygon points="84.82 157.46 82.09 162.94 86.47 164.03 84.82 157.46" style="fill:#fff;stroke:#263238;stroke-linecap:round;stroke-linejoin:round;stroke-width:0.5px"></polygon><polygon points="112.64 161.55 109.9 167.03 114.28 168.12 112.64 161.55" style="fill:#fff;stroke:#263238;stroke-linecap:round;stroke-linejoin:round;stroke-width:0.5px"></polygon><polygon points="97.4 142.79 93.14 138.39 90.66 142.16 97.4 142.79" style="fill:#92E3A9;stroke:#263238;stroke-linecap:round;stroke-linejoin:round;stroke-width:0.5px"></polygon><line x1="98.14" y1="153.32" x2="96.52" y2="159.9" style="fill:#92E3A9;stroke:#263238;stroke-linecap:round;stroke-linejoin:round;stroke-width:0.5px"></line><polygon points="214.1 185.97 219.07 182.41 215.72 179.39 214.1 185.97" style="fill:#92E3A9;stroke:#263238;stroke-linecap:round;stroke-linejoin:round;stroke-width:0.5px"></polygon><polygon points="346.72 143.29 351.07 147.59 353.47 143.77 346.72 143.29" style="fill:#fff;stroke:#263238;stroke-linecap:round;stroke-linejoin:round;stroke-width:0.5px"></polygon><polygon points="395.82 154.46 393.09 159.94 397.47 161.03 395.82 154.46" style="fill:#fff;stroke:#263238;stroke-linecap:round;stroke-linejoin:round;stroke-width:0.5px"></polygon><polygon points="329.56 125.51 326.82 130.98 331.2 132.08 329.56 125.51" style="fill:#fff;stroke:#263238;stroke-linecap:round;stroke-linejoin:round;stroke-width:0.5px"></polygon><polygon points="423.64 158.55 420.9 164.03 425.28 165.12 423.64 158.55" style="fill:#fff;stroke:#263238;stroke-linecap:round;stroke-linejoin:round;stroke-width:0.5px"></polygon><polygon points="437.55 137.69 434.81 143.17 439.19 144.26 437.55 137.69" style="fill:#fff;stroke:#263238;stroke-linecap:round;stroke-linejoin:round;stroke-width:0.5px"></polygon><polygon points="347.04 163.51 342.79 159.11 340.3 162.88 347.04 163.51" style="fill:#92E3A9;stroke:#263238;stroke-linecap:round;stroke-linejoin:round;stroke-width:0.5px"></polygon><polygon points="322.09 165.15 317.83 160.75 315.35 164.52 322.09 165.15" style="fill:#92E3A9;stroke:#263238;stroke-linecap:round;stroke-linejoin:round;stroke-width:0.5px"></polygon><polygon points="375.02 123.56 380 120 376.64 116.98 375.02 123.56" style="fill:#92E3A9;stroke:#263238;stroke-linecap:round;stroke-linejoin:round;stroke-width:0.5px"></polygon><polygon points="319.8 117.81 324.78 114.25 321.42 111.23 319.8 117.81" style="fill:#92E3A9;stroke:#263238;stroke-linecap:round;stroke-linejoin:round;stroke-width:0.5px"></polygon><polygon points="402.02 130.56 407 127 403.64 123.98 402.02 130.56" style="fill:#92E3A9;stroke:#263238;stroke-linecap:round;stroke-linejoin:round;stroke-width:0.5px"></polygon><polygon points="345.1 190.97 350.07 187.41 346.71 184.39 345.1 190.97" style="fill:#92E3A9;stroke:#263238;stroke-linecap:round;stroke-linejoin:round;stroke-width:0.5px"></polygon><polygon points="143.1 154.51 148.08 150.95 144.72 147.94 143.1 154.51" style="fill:#92E3A9;stroke:#263238;stroke-linecap:round;stroke-linejoin:round;stroke-width:0.5px"></polygon><polygon points="305.56 220.41 301.21 216.11 298.81 219.93 305.56 220.41" style="fill:#fff;stroke:#263238;stroke-linecap:round;stroke-linejoin:round;stroke-width:0.5px"></polygon><polygon points="347.69 217.55 343.34 213.25 340.94 217.07 347.69 217.55" style="fill:#fff;stroke:#263238;stroke-linecap:round;stroke-linejoin:round;stroke-width:0.5px"></polygon><polygon points="395.63 223 391.28 218.7 388.87 222.52 395.63 223" style="fill:#fff;stroke:#263238;stroke-linecap:round;stroke-linejoin:round;stroke-width:0.5px"></polygon><polygon points="256.45 209.24 259.19 203.76 254.81 202.67 256.45 209.24" style="fill:#fff;stroke:#263238;stroke-linecap:round;stroke-linejoin:round;stroke-width:0.5px"></polygon><polygon points="322.72 216.19 325.45 210.72 321.07 209.62 322.72 216.19" style="fill:#fff;stroke:#263238;stroke-linecap:round;stroke-linejoin:round;stroke-width:0.5px"></polygon><polygon points="228.64 205.15 231.37 199.67 226.99 198.58 228.64 205.15" style="fill:#fff;stroke:#263238;stroke-linecap:round;stroke-linejoin:round;stroke-width:0.5px"></polygon><polygon points="214.73 226.01 217.47 220.53 213.09 219.44 214.73 226.01" style="fill:#fff;stroke:#263238;stroke-linecap:round;stroke-linejoin:round;stroke-width:0.5px"></polygon><polygon points="305.24 200.19 309.49 204.59 311.98 200.82 305.24 200.19" style="fill:#92E3A9;stroke:#263238;stroke-linecap:round;stroke-linejoin:round;stroke-width:0.5px"></polygon><polygon points="330.19 198.55 334.44 202.95 336.93 199.18 330.19 198.55" style="fill:#92E3A9;stroke:#263238;stroke-linecap:round;stroke-linejoin:round;stroke-width:0.5px"></polygon><polygon points="366.18 214.91 370.44 219.31 372.93 215.55 366.18 214.91" style="fill:#92E3A9;stroke:#263238;stroke-linecap:round;stroke-linejoin:round;stroke-width:0.5px"></polygon><polygon points="244.75 206.8 239.77 210.36 243.13 213.38 244.75 206.8" style="fill:#92E3A9;stroke:#263238;stroke-linecap:round;stroke-linejoin:round;stroke-width:0.5px"></polygon><polygon points="247.21 187.17 242.23 190.73 245.59 193.74 247.21 187.17" style="fill:#92E3A9;stroke:#263238;stroke-linecap:round;stroke-linejoin:round;stroke-width:0.5px"></polygon><polygon points="436.45 201.24 439.19 195.76 434.81 194.67 436.45 201.24" style="fill:#fff;stroke:#263238;stroke-linecap:round;stroke-linejoin:round;stroke-width:0.5px"></polygon><polygon points="408.64 197.15 411.37 191.67 406.99 190.58 408.64 197.15" style="fill:#fff;stroke:#263238;stroke-linecap:round;stroke-linejoin:round;stroke-width:0.5px"></polygon><polygon points="424.75 198.8 419.77 202.36 423.13 205.38 424.75 198.8" style="fill:#92E3A9;stroke:#263238;stroke-linecap:round;stroke-linejoin:round;stroke-width:0.5px"></polygon><polygon points="174.56 215.41 170.21 211.11 167.81 214.93 174.56 215.41" style="fill:#fff;stroke:#263238;stroke-linecap:round;stroke-linejoin:round;stroke-width:0.5px"></polygon><polygon points="216.69 212.55 212.34 208.25 209.94 212.07 216.69 212.55" style="fill:#fff;stroke:#263238;stroke-linecap:round;stroke-linejoin:round;stroke-width:0.5px"></polygon><polygon points="125.45 204.24 128.19 198.76 123.81 197.67 125.45 204.24" style="fill:#fff;stroke:#263238;stroke-linecap:round;stroke-linejoin:round;stroke-width:0.5px"></polygon><polygon points="191.72 211.19 194.46 205.72 190.07 204.62 191.72 211.19" style="fill:#fff;stroke:#263238;stroke-linecap:round;stroke-linejoin:round;stroke-width:0.5px"></polygon><polygon points="97.64 200.15 100.37 194.67 95.99 193.58 97.64 200.15" style="fill:#fff;stroke:#263238;stroke-linecap:round;stroke-linejoin:round;stroke-width:0.5px"></polygon><polygon points="83.73 221.01 86.47 215.53 82.09 214.44 83.73 221.01" style="fill:#fff;stroke:#263238;stroke-linecap:round;stroke-linejoin:round;stroke-width:0.5px"></polygon><polygon points="174.24 195.19 178.49 199.59 180.98 195.82 174.24 195.19" style="fill:#92E3A9;stroke:#263238;stroke-linecap:round;stroke-linejoin:round;stroke-width:0.5px"></polygon><polygon points="112.88 218.91 117.13 223.31 119.62 219.54 112.88 218.91" style="fill:#92E3A9;stroke:#263238;stroke-linecap:round;stroke-linejoin:round;stroke-width:0.5px"></polygon><polygon points="145.43 213.17 140.46 216.73 143.82 219.74 145.43 213.17" style="fill:#92E3A9;stroke:#263238;stroke-linecap:round;stroke-linejoin:round;stroke-width:0.5px"></polygon><polygon points="201.47 218.89 196.5 222.45 199.85 225.47 201.47 218.89" style="fill:#92E3A9;stroke:#263238;stroke-linecap:round;stroke-linejoin:round;stroke-width:0.5px"></polygon><line x1="108.77" y1="205.36" x2="112.13" y2="208.38" style="fill:#92E3A9;stroke:#263238;stroke-linecap:round;stroke-linejoin:round;stroke-width:0.5px"></line><polygon points="116.2 182.17 111.23 185.73 114.59 188.74 116.2 182.17" style="fill:#92E3A9;stroke:#263238;stroke-linecap:round;stroke-linejoin:round;stroke-width:0.5px"></polygon><polygon points="370.17 184.19 365.19 187.75 368.55 190.76 370.17 184.19" style="fill:#92E3A9;stroke:#263238;stroke-linecap:round;stroke-linejoin:round;stroke-width:0.5px"></polygon><polygon points="215.72 238.29 220.07 242.59 222.47 238.77 215.72 238.29" style="fill:#fff;stroke:#263238;stroke-linecap:round;stroke-linejoin:round;stroke-width:0.5px"></polygon><polygon points="173.58 241.15 177.94 245.46 180.34 241.63 173.58 241.15" style="fill:#fff;stroke:#263238;stroke-linecap:round;stroke-linejoin:round;stroke-width:0.5px"></polygon><polygon points="125.65 235.69 130 240 132.4 236.18 125.65 235.69" style="fill:#fff;stroke:#263238;stroke-linecap:round;stroke-linejoin:round;stroke-width:0.5px"></polygon><polygon points="264.82 249.46 262.09 254.94 266.47 256.03 264.82 249.46" style="fill:#fff;stroke:#263238;stroke-linecap:round;stroke-linejoin:round;stroke-width:0.5px"></polygon><polygon points="198.56 242.51 195.82 247.98 200.2 249.08 198.56 242.51" style="fill:#fff;stroke:#263238;stroke-linecap:round;stroke-linejoin:round;stroke-width:0.5px"></polygon><polygon points="216.04 258.51 211.78 254.11 209.3 257.88 216.04 258.51" style="fill:#92E3A9;stroke:#263238;stroke-linecap:round;stroke-linejoin:round;stroke-width:0.5px"></polygon><polygon points="191.09 260.15 186.83 255.75 184.35 259.52 191.09 260.15" style="fill:#92E3A9;stroke:#263238;stroke-linecap:round;stroke-linejoin:round;stroke-width:0.5px"></polygon><polygon points="155.09 243.79 150.84 239.39 148.35 243.15 155.09 243.79" style="fill:#92E3A9;stroke:#263238;stroke-linecap:round;stroke-linejoin:round;stroke-width:0.5px"></polygon><polygon points="277.4 234.79 273.14 230.39 270.66 234.16 277.4 234.79" style="fill:#92E3A9;stroke:#263238;stroke-linecap:round;stroke-linejoin:round;stroke-width:0.5px"></polygon><polygon points="244.84 240.53 249.82 236.97 246.46 233.96 244.84 240.53" style="fill:#92E3A9;stroke:#263238;stroke-linecap:round;stroke-linejoin:round;stroke-width:0.5px"></polygon><polygon points="276.52 251.9 281.5 248.34 278.14 245.32 276.52 251.9" style="fill:#92E3A9;stroke:#263238;stroke-linecap:round;stroke-linejoin:round;stroke-width:0.5px"></polygon><polygon points="274.07 271.53 279.05 267.97 275.69 264.96 274.07 271.53" style="fill:#92E3A9;stroke:#263238;stroke-linecap:round;stroke-linejoin:round;stroke-width:0.5px"></polygon><polygon points="84.82 257.46 82.09 262.94 86.47 264.03 84.82 257.46" style="fill:#fff;stroke:#263238;stroke-linecap:round;stroke-linejoin:round;stroke-width:0.5px"></polygon><polygon points="112.64 261.55 109.9 267.03 114.28 268.12 112.64 261.55" style="fill:#fff;stroke:#263238;stroke-linecap:round;stroke-linejoin:round;stroke-width:0.5px"></polygon><polygon points="97.4 242.79 93.14 238.39 90.66 242.16 97.4 242.79" style="fill:#92E3A9;stroke:#263238;stroke-linecap:round;stroke-linejoin:round;stroke-width:0.5px"></polygon><polygon points="96.53 259.9 101.5 256.34 98.14 253.32 96.53 259.9" style="fill:#92E3A9;stroke:#263238;stroke-linecap:round;stroke-linejoin:round;stroke-width:0.5px"></polygon><polygon points="214.1 285.97 219.07 282.41 215.72 279.39 214.1 285.97" style="fill:#92E3A9;stroke:#263238;stroke-linecap:round;stroke-linejoin:round;stroke-width:0.5px"></polygon><polygon points="346.72 243.29 351.07 247.59 353.47 243.77 346.72 243.29" style="fill:#fff;stroke:#263238;stroke-linecap:round;stroke-linejoin:round;stroke-width:0.5px"></polygon><polygon points="304.58 246.15 308.94 250.46 311.34 246.63 304.58 246.15" style="fill:#fff;stroke:#263238;stroke-linecap:round;stroke-linejoin:round;stroke-width:0.5px"></polygon><polygon points="395.82 254.46 393.09 259.94 397.47 261.03 395.82 254.46" style="fill:#fff;stroke:#263238;stroke-linecap:round;stroke-linejoin:round;stroke-width:0.5px"></polygon><polygon points="423.64 258.55 420.9 264.03 425.28 265.12 423.64 258.55" style="fill:#fff;stroke:#263238;stroke-linecap:round;stroke-linejoin:round;stroke-width:0.5px"></polygon><polygon points="437.55 237.69 434.81 243.17 439.19 244.26 437.55 237.69" style="fill:#fff;stroke:#263238;stroke-linecap:round;stroke-linejoin:round;stroke-width:0.5px"></polygon><polygon points="347.04 263.51 342.79 259.11 340.3 262.88 347.04 263.51" style="fill:#92E3A9;stroke:#263238;stroke-linecap:round;stroke-linejoin:round;stroke-width:0.5px"></polygon><polygon points="322.09 265.15 317.83 260.75 315.35 264.52 322.09 265.15" style="fill:#92E3A9;stroke:#263238;stroke-linecap:round;stroke-linejoin:round;stroke-width:0.5px"></polygon><polygon points="408.4 239.79 404.14 235.39 401.66 239.16 408.4 239.79" style="fill:#92E3A9;stroke:#263238;stroke-linecap:round;stroke-linejoin:round;stroke-width:0.5px"></polygon><polygon points="375.84 245.53 380.82 241.97 377.46 238.96 375.84 245.53" style="fill:#92E3A9;stroke:#263238;stroke-linecap:round;stroke-linejoin:round;stroke-width:0.5px"></polygon><polygon points="407.52 256.9 412.5 253.34 409.14 250.32 407.52 256.9" style="fill:#92E3A9;stroke:#263238;stroke-linecap:round;stroke-linejoin:round;stroke-width:0.5px"></polygon><polygon points="345.1 290.97 350.07 287.41 346.71 284.39 345.1 290.97" style="fill:#92E3A9;stroke:#263238;stroke-linecap:round;stroke-linejoin:round;stroke-width:0.5px"></polygon><polygon points="151.1 274.51 156.08 270.95 152.72 267.94 151.1 274.51" style="fill:#92E3A9;stroke:#263238;stroke-linecap:round;stroke-linejoin:round;stroke-width:0.5px"></polygon><polygon points="347.69 317.55 343.34 313.25 340.94 317.07 347.69 317.55" style="fill:#fff;stroke:#263238;stroke-linecap:round;stroke-linejoin:round;stroke-width:0.5px"></polygon><polygon points="256.45 309.24 259.19 303.76 254.81 302.67 256.45 309.24" style="fill:#fff;stroke:#263238;stroke-linecap:round;stroke-linejoin:round;stroke-width:0.5px"></polygon><polygon points="228.64 305.15 231.37 299.67 226.99 298.58 228.64 305.15" style="fill:#fff;stroke:#263238;stroke-linecap:round;stroke-linejoin:round;stroke-width:0.5px"></polygon><polygon points="305.24 300.19 309.49 304.59 311.98 300.82 305.24 300.19" style="fill:#92E3A9;stroke:#263238;stroke-linecap:round;stroke-linejoin:round;stroke-width:0.5px"></polygon><polygon points="330.19 298.55 334.44 302.95 336.93 299.18 330.19 298.55" style="fill:#92E3A9;stroke:#263238;stroke-linecap:round;stroke-linejoin:round;stroke-width:0.5px"></polygon><polygon points="366.18 314.91 370.44 319.31 372.93 315.55 366.18 314.91" style="fill:#92E3A9;stroke:#263238;stroke-linecap:round;stroke-linejoin:round;stroke-width:0.5px"></polygon><polygon points="276.43 318.17 271.45 321.73 274.82 324.74 276.43 318.17" style="fill:#92E3A9;stroke:#263238;stroke-linecap:round;stroke-linejoin:round;stroke-width:0.5px"></polygon><polygon points="244.75 306.8 239.77 310.36 243.13 313.38 244.75 306.8" style="fill:#92E3A9;stroke:#263238;stroke-linecap:round;stroke-linejoin:round;stroke-width:0.5px"></polygon><polygon points="247.21 287.17 242.23 290.73 245.59 293.74 247.21 287.17" style="fill:#92E3A9;stroke:#263238;stroke-linecap:round;stroke-linejoin:round;stroke-width:0.5px"></polygon><polygon points="436.45 301.24 439.19 295.76 434.81 294.67 436.45 301.24" style="fill:#fff;stroke:#263238;stroke-linecap:round;stroke-linejoin:round;stroke-width:0.5px"></polygon><polygon points="408.64 297.15 411.37 291.67 406.99 290.58 408.64 297.15" style="fill:#fff;stroke:#263238;stroke-linecap:round;stroke-linejoin:round;stroke-width:0.5px"></polygon><polygon points="424.75 298.8 419.77 302.36 423.13 305.38 424.75 298.8" style="fill:#92E3A9;stroke:#263238;stroke-linecap:round;stroke-linejoin:round;stroke-width:0.5px"></polygon><polygon points="307.18 272.73 302.2 276.29 305.56 279.31 307.18 272.73" style="fill:#92E3A9;stroke:#263238;stroke-linecap:round;stroke-linejoin:round;stroke-width:0.5px"></polygon><polygon points="174.56 315.41 170.21 311.11 167.81 314.93 174.56 315.41" style="fill:#fff;stroke:#263238;stroke-linecap:round;stroke-linejoin:round;stroke-width:0.5px"></polygon><polygon points="216.69 312.55 212.34 308.25 209.94 312.07 216.69 312.55" style="fill:#fff;stroke:#263238;stroke-linecap:round;stroke-linejoin:round;stroke-width:0.5px"></polygon><polygon points="125.45 304.24 128.19 298.76 123.81 297.67 125.45 304.24" style="fill:#fff;stroke:#263238;stroke-linecap:round;stroke-linejoin:round;stroke-width:0.5px"></polygon><polygon points="191.72 311.19 194.46 305.72 190.07 304.62 191.72 311.19" style="fill:#fff;stroke:#263238;stroke-linecap:round;stroke-linejoin:round;stroke-width:0.5px"></polygon><polygon points="97.64 300.15 100.37 294.67 95.99 293.58 97.64 300.15" style="fill:#fff;stroke:#263238;stroke-linecap:round;stroke-linejoin:round;stroke-width:0.5px"></polygon><polygon points="83.73 321.01 86.47 315.53 82.09 314.44 83.73 321.01" style="fill:#fff;stroke:#263238;stroke-linecap:round;stroke-linejoin:round;stroke-width:0.5px"></polygon><polygon points="199.19 293.55 203.44 297.95 205.93 294.18 199.19 293.55" style="fill:#92E3A9;stroke:#263238;stroke-linecap:round;stroke-linejoin:round;stroke-width:0.5px"></polygon><polygon points="112.88 318.91 117.13 323.31 119.62 319.55 112.88 318.91" style="fill:#92E3A9;stroke:#263238;stroke-linecap:round;stroke-linejoin:round;stroke-width:0.5px"></polygon><polygon points="145.43 313.17 140.46 316.73 143.82 319.74 145.43 313.17" style="fill:#92E3A9;stroke:#263238;stroke-linecap:round;stroke-linejoin:round;stroke-width:0.5px"></polygon><polygon points="116.2 282.17 111.23 285.73 114.59 288.74 116.2 282.17" style="fill:#92E3A9;stroke:#263238;stroke-linecap:round;stroke-linejoin:round;stroke-width:0.5px"></polygon><polygon points="176.18 267.73 171.2 271.29 174.56 274.31 176.18 267.73" style="fill:#92E3A9;stroke:#263238;stroke-linecap:round;stroke-linejoin:round;stroke-width:0.5px"></polygon><polygon points="370.17 284.19 365.19 287.75 368.55 290.76 370.17 284.19" style="fill:#92E3A9;stroke:#263238;stroke-linecap:round;stroke-linejoin:round;stroke-width:0.5px"></polygon><polygon points="215.72 339.29 220.07 343.59 222.47 339.77 215.72 339.29" style="fill:#fff;stroke:#263238;stroke-linecap:round;stroke-linejoin:round;stroke-width:0.5px"></polygon><polygon points="173.58 342.15 177.94 346.45 180.34 342.63 173.58 342.15" style="fill:#fff;stroke:#263238;stroke-linecap:round;stroke-linejoin:round;stroke-width:0.5px"></polygon><polygon points="125.65 336.69 130 341 132.4 337.18 125.65 336.69" style="fill:#fff;stroke:#263238;stroke-linecap:round;stroke-linejoin:round;stroke-width:0.5px"></polygon><polygon points="264.82 350.46 262.09 355.94 266.47 357.03 264.82 350.46" style="fill:#fff;stroke:#263238;stroke-linecap:round;stroke-linejoin:round;stroke-width:0.5px"></polygon><polygon points="198.56 343.51 195.82 348.98 200.2 350.08 198.56 343.51" style="fill:#fff;stroke:#263238;stroke-linecap:round;stroke-linejoin:round;stroke-width:0.5px"></polygon><polygon points="292.64 354.55 289.9 360.03 294.28 361.12 292.64 354.55" style="fill:#fff;stroke:#263238;stroke-linecap:round;stroke-linejoin:round;stroke-width:0.5px"></polygon><polygon points="306.55 333.69 303.81 339.17 308.19 340.26 306.55 333.69" style="fill:#fff;stroke:#263238;stroke-linecap:round;stroke-linejoin:round;stroke-width:0.5px"></polygon><polygon points="216.04 359.51 211.78 355.11 209.3 358.88 216.04 359.51" style="fill:#92E3A9;stroke:#263238;stroke-linecap:round;stroke-linejoin:round;stroke-width:0.5px"></polygon><polygon points="155.09 344.79 150.84 340.39 148.35 344.15 155.09 344.79" style="fill:#92E3A9;stroke:#263238;stroke-linecap:round;stroke-linejoin:round;stroke-width:0.5px"></polygon><polygon points="244.84 341.53 249.82 337.97 246.46 334.96 244.84 341.53" style="fill:#92E3A9;stroke:#263238;stroke-linecap:round;stroke-linejoin:round;stroke-width:0.5px"></polygon><polygon points="274.07 372.53 279.05 368.97 275.69 365.96 274.07 372.53" style="fill:#92E3A9;stroke:#263238;stroke-linecap:round;stroke-linejoin:round;stroke-width:0.5px"></polygon><polygon points="84.82 358.46 82.09 363.94 86.47 365.03 84.82 358.46" style="fill:#fff;stroke:#263238;stroke-linecap:round;stroke-linejoin:round;stroke-width:0.5px"></polygon><polygon points="112.64 362.55 109.9 368.03 114.28 369.12 112.64 362.55" style="fill:#fff;stroke:#263238;stroke-linecap:round;stroke-linejoin:round;stroke-width:0.5px"></polygon><polygon points="97.4 343.79 93.14 339.39 90.66 343.16 97.4 343.79" style="fill:#92E3A9;stroke:#263238;stroke-linecap:round;stroke-linejoin:round;stroke-width:0.5px"></polygon><polygon points="214.1 386.97 219.07 383.41 215.72 380.39 214.1 386.97" style="fill:#92E3A9;stroke:#263238;stroke-linecap:round;stroke-linejoin:round;stroke-width:0.5px"></polygon><polygon points="346.72 344.29 351.07 348.59 353.47 344.77 346.72 344.29" style="fill:#fff;stroke:#263238;stroke-linecap:round;stroke-linejoin:round;stroke-width:0.5px"></polygon><polygon points="395.82 355.46 393.09 360.94 397.47 362.03 395.82 355.46" style="fill:#fff;stroke:#263238;stroke-linecap:round;stroke-linejoin:round;stroke-width:0.5px"></polygon><polygon points="329.56 348.51 326.82 353.98 331.2 355.08 329.56 348.51" style="fill:#fff;stroke:#263238;stroke-linecap:round;stroke-linejoin:round;stroke-width:0.5px"></polygon><polygon points="423.64 359.55 420.9 365.03 425.28 366.12 423.64 359.55" style="fill:#fff;stroke:#263238;stroke-linecap:round;stroke-linejoin:round;stroke-width:0.5px"></polygon><polygon points="437.55 338.69 434.81 344.17 439.19 345.26 437.55 338.69" style="fill:#fff;stroke:#263238;stroke-linecap:round;stroke-linejoin:round;stroke-width:0.5px"></polygon><polygon points="322.09 366.15 317.83 361.75 315.35 365.52 322.09 366.15" style="fill:#92E3A9;stroke:#263238;stroke-linecap:round;stroke-linejoin:round;stroke-width:0.5px"></polygon><polygon points="408.4 340.79 404.14 336.39 401.66 340.16 408.4 340.79" style="fill:#92E3A9;stroke:#263238;stroke-linecap:round;stroke-linejoin:round;stroke-width:0.5px"></polygon><polygon points="375.84 346.53 380.82 342.97 377.46 339.96 375.84 346.53" style="fill:#92E3A9;stroke:#263238;stroke-linecap:round;stroke-linejoin:round;stroke-width:0.5px"></polygon><polygon points="405.07 377.53 410.05 373.97 406.69 370.96 405.07 377.53" style="fill:#92E3A9;stroke:#263238;stroke-linecap:round;stroke-linejoin:round;stroke-width:0.5px"></polygon><polygon points="345.1 391.97 350.07 388.41 346.71 385.39 345.1 391.97" style="fill:#92E3A9;stroke:#263238;stroke-linecap:round;stroke-linejoin:round;stroke-width:0.5px"></polygon><polygon points="151.1 375.51 156.08 371.95 152.72 368.94 151.1 375.51" style="fill:#92E3A9;stroke:#263238;stroke-linecap:round;stroke-linejoin:round;stroke-width:0.5px"></polygon><polygon points="215.72 380.66 220.07 381.58 222.47 380.76 215.72 380.66" style="fill:#fff;stroke:#263238;stroke-linecap:round;stroke-linejoin:round;stroke-width:0.5px"></polygon><polygon points="173.58 381.27 177.94 382.2 180.34 381.38 173.58 381.27" style="fill:#fff;stroke:#263238;stroke-linecap:round;stroke-linejoin:round;stroke-width:0.5px"></polygon><polygon points="125.65 380.1 130 381.03 132.4 380.21 125.65 380.1" style="fill:#fff;stroke:#263238;stroke-linecap:round;stroke-linejoin:round;stroke-width:0.5px"></polygon><polygon points="264.82 383.06 262.09 384.23 266.47 384.47 264.82 383.06" style="fill:#fff;stroke:#263238;stroke-linecap:round;stroke-linejoin:round;stroke-width:0.5px"></polygon><polygon points="198.56 381.56 195.82 382.74 200.2 382.98 198.56 381.56" style="fill:#fff;stroke:#263238;stroke-linecap:round;stroke-linejoin:round;stroke-width:0.5px"></polygon><polygon points="292.64 383.94 289.9 385.11 294.28 385.35 292.64 383.94" style="fill:#fff;stroke:#263238;stroke-linecap:round;stroke-linejoin:round;stroke-width:0.5px"></polygon><polygon points="306.55 379.46 303.81 380.63 308.19 380.87 306.55 379.46" style="fill:#fff;stroke:#263238;stroke-linecap:round;stroke-linejoin:round;stroke-width:0.5px"></polygon><polygon points="216.04 385 211.78 384.06 209.3 384.87 216.04 385" style="fill:#92E3A9;stroke:#263238;stroke-linecap:round;stroke-linejoin:round;stroke-width:0.5px"></polygon><polygon points="191.09 385.35 186.83 384.41 184.35 385.22 191.09 385.35" style="fill:#92E3A9;stroke:#263238;stroke-linecap:round;stroke-linejoin:round;stroke-width:0.5px"></polygon><polygon points="155.09 381.84 150.84 380.89 148.35 381.7 155.09 381.84" style="fill:#92E3A9;stroke:#263238;stroke-linecap:round;stroke-linejoin:round;stroke-width:0.5px"></polygon><polygon points="277.4 379.91 273.14 378.96 270.66 379.77 277.4 379.91" style="fill:#92E3A9;stroke:#263238;stroke-linecap:round;stroke-linejoin:round;stroke-width:0.5px"></polygon><polygon points="244.84 381.14 249.82 380.38 246.46 379.73 244.84 381.14" style="fill:#92E3A9;stroke:#263238;stroke-linecap:round;stroke-linejoin:round;stroke-width:0.5px"></polygon><polygon points="188.8 379.91 193.78 379.15 190.42 378.5 188.8 379.91" style="fill:#92E3A9;stroke:#263238;stroke-linecap:round;stroke-linejoin:round;stroke-width:0.5px"></polygon><polygon points="276.52 383.58 281.5 382.82 278.14 382.17 276.52 383.58" style="fill:#92E3A9;stroke:#263238;stroke-linecap:round;stroke-linejoin:round;stroke-width:0.5px"></polygon><polygon points="274.07 387.8 279.05 387.03 275.69 386.38 274.07 387.8" style="fill:#92E3A9;stroke:#263238;stroke-linecap:round;stroke-linejoin:round;stroke-width:0.5px"></polygon><polygon points="84.82 384.77 82.09 385.95 86.47 386.19 84.82 384.77" style="fill:#fff;stroke:#263238;stroke-linecap:round;stroke-linejoin:round;stroke-width:0.5px"></polygon><polygon points="112.64 385.65 109.9 386.83 114.28 387.06 112.64 385.65" style="fill:#fff;stroke:#263238;stroke-linecap:round;stroke-linejoin:round;stroke-width:0.5px"></polygon><polygon points="97.4 381.63 93.14 380.68 90.66 381.49 97.4 381.63" style="fill:#92E3A9;stroke:#263238;stroke-linecap:round;stroke-linejoin:round;stroke-width:0.5px"></polygon><polygon points="96.53 385.3 101.5 384.53 98.14 383.89 96.53 385.3" style="fill:#92E3A9;stroke:#263238;stroke-linecap:round;stroke-linejoin:round;stroke-width:0.5px"></polygon><polygon points="94.07 389.51 99.05 388.75 95.69 388.1 94.07 389.51" style="fill:#92E3A9;stroke:#263238;stroke-linecap:round;stroke-linejoin:round;stroke-width:0.5px"></polygon><polygon points="214.1 390.89 219.07 390.13 215.72 389.48 214.1 390.89" style="fill:#92E3A9;stroke:#263238;stroke-linecap:round;stroke-linejoin:round;stroke-width:0.5px"></polygon><polygon points="346.72 381.73 351.07 382.66 353.47 381.84 346.72 381.73" style="fill:#fff;stroke:#263238;stroke-linecap:round;stroke-linejoin:round;stroke-width:0.5px"></polygon><polygon points="304.58 382.35 308.94 383.27 311.34 382.45 304.58 382.35" style="fill:#fff;stroke:#263238;stroke-linecap:round;stroke-linejoin:round;stroke-width:0.5px"></polygon><polygon points="395.82 384.13 393.09 385.31 397.47 385.54 395.82 384.13" style="fill:#fff;stroke:#263238;stroke-linecap:round;stroke-linejoin:round;stroke-width:0.5px"></polygon><polygon points="329.56 382.64 326.82 383.81 331.2 384.05 329.56 382.64" style="fill:#fff;stroke:#263238;stroke-linecap:round;stroke-linejoin:round;stroke-width:0.5px"></polygon><polygon points="423.64 385.01 420.9 386.19 425.28 386.42 423.64 385.01" style="fill:#fff;stroke:#263238;stroke-linecap:round;stroke-linejoin:round;stroke-width:0.5px"></polygon><polygon points="437.55 380.53 434.81 381.71 439.19 381.94 437.55 380.53" style="fill:#fff;stroke:#263238;stroke-linecap:round;stroke-linejoin:round;stroke-width:0.5px"></polygon><polygon points="347.04 386.07 342.79 385.13 340.3 385.94 347.04 386.07" style="fill:#92E3A9;stroke:#263238;stroke-linecap:round;stroke-linejoin:round;stroke-width:0.5px"></polygon><polygon points="322.09 386.43 317.83 385.48 315.35 386.29 322.09 386.43" style="fill:#92E3A9;stroke:#263238;stroke-linecap:round;stroke-linejoin:round;stroke-width:0.5px"></polygon><polygon points="408.4 380.98 404.14 380.04 401.66 380.85 408.4 380.98" style="fill:#92E3A9;stroke:#263238;stroke-linecap:round;stroke-linejoin:round;stroke-width:0.5px"></polygon><polygon points="375.84 382.21 380.82 381.45 377.46 380.8 375.84 382.21" style="fill:#92E3A9;stroke:#263238;stroke-linecap:round;stroke-linejoin:round;stroke-width:0.5px"></polygon><polygon points="319.8 380.99 324.78 380.22 321.42 379.57 319.8 380.99" style="fill:#92E3A9;stroke:#263238;stroke-linecap:round;stroke-linejoin:round;stroke-width:0.5px"></polygon><polygon points="407.52 384.65 412.5 383.89 409.14 383.24 407.52 384.65" style="fill:#92E3A9;stroke:#263238;stroke-linecap:round;stroke-linejoin:round;stroke-width:0.5px"></polygon><polygon points="405.07 388.87 410.05 388.11 406.69 387.46 405.07 388.87" style="fill:#92E3A9;stroke:#263238;stroke-linecap:round;stroke-linejoin:round;stroke-width:0.5px"></polygon><polygon points="345.1 391.97 350.07 391.2 346.71 390.56 345.1 391.97" style="fill:#92E3A9;stroke:#263238;stroke-linecap:round;stroke-linejoin:round;stroke-width:0.5px"></polygon><polygon points="151.1 388.44 156.08 387.67 152.72 387.02 151.1 388.44" style="fill:#92E3A9;stroke:#263238;stroke-linecap:round;stroke-linejoin:round;stroke-width:0.5px"></polygon></g></svg>